<?xml version="1.0" encoding="UTF-8"?>
<svg width="256" height="256" viewBox="0 0 256 256" fill="none" xmlns="http://www.w3.org/2000/svg" role="img" aria-label="FlameNet logo">
  <defs>
    <linearGradient id="grad" x1="0" y1="0" x2="1" y2="1">
      <stop offset="0%" stop-color="#3b82f6"/>
      <stop offset="100%" stop-color="#06b6d4"/>
    </linearGradient>
  </defs>
  <rect width="256" height="256" rx="32" fill="#0b1220"/>
  <path d="M128 28c-6 32 18 43 18 66 0 20-16 32-34 32-14 0-26-6-33-17-3 33 16 59 49 59 35 0 62-27 62-62 0-33-24-58-54-78 0 0-4 0-8 0Z" fill="url(#grad)"/>
  <path d="M148 114c-2 12-12 20-24 20-8 0-15-3-19-9-2 18 9 32 28 32 20 0 36-16 36-36 0-18-13-31-29-42 7 11 10 20 8 35Z" fill="#f9fafb" fill-opacity="0.15"/>
</svg>
